<?xml version="1.0" standalone="no"?>
<!DOCTYPE svg PUBLIC "-//W3C//DTD SVG 20010904//EN"
 "http://www.w3.org/TR/2001/REC-SVG-20010904/DTD/svg10.dtd">
<svg version="1.0" xmlns="http://www.w3.org/2000/svg"
 width="115.000000pt" height="150.000000pt" viewBox="0 0 115.000000 150.000000"
 preserveAspectRatio="xMidYMid meet">
<metadata>
Created by potrace 1.16, written by Peter Selinger 2001-2019
</metadata>
<g transform="translate(0.000000,150.000000) scale(0.100000,-0.100000)"
fill="#000000" stroke="none">
<path d="M2 1309 l3 -192 192 -90 191 -89 -99 -49 -99 -49 2 -192 3 -192 465
-227 c256 -125 471 -228 478 -228 9 -1 12 43 12 190 l0 190 -270 131 c-149 73
-270 134 -270 138 0 3 40 26 90 50 l89 44 3 192 3 193 -383 183 c-211 101
-390 184 -398 186 -12 3 -14 -26 -12 -189z"/>
</g>
</svg>
