<svg id="Capa_1" enable-background="new 0 0 512 512" height="512" viewBox="0 0 512 512" width="512" xmlns="http://www.w3.org/2000/svg"><g><g><g><path d="m256 235.885v219.45h-91.43l-36.57 36.53-36.57-36.53h-91.43v-219.45z" fill="#ffcf67"/></g></g><g fill="#feb920"><path d="m256 235.885v219.45h-91.43l-36.57 36.53v-255.98z"/><path d="m76.36 365.035h103.28v30h-103.28z"/><path d="m76.36 296.185h103.28v30h-103.28z"/></g><path d="m128 296.185h51.64v30h-51.64z" fill="#fc9b28"/><path d="m128 365.035h51.64v30h-51.64z" fill="#fc9b28"/><path d="m487.76 294.025 19.26 87.08-88.37-18.64c-26.46 14.89-56.99 23.39-89.51 23.39-100.99 0-182.85-81.87-182.85-182.86s81.86-182.86 182.85-182.86 182.86 81.87 182.86 182.86c0 33.14-8.82 64.23-24.24 91.03z" fill="#393e9f"/><path d="m487.76 294.025 19.26 87.08-88.37-18.64c-26.46 14.89-56.99 23.39-89.51 23.39v-365.72c100.99 0 182.86 81.87 182.86 182.86 0 33.14-8.82 64.23-24.24 91.03z" fill="#340d66"/><path d="m397.111 153.055v99.88h-20.47l-47.5-35.62v35.62h-99.89v-99.88h99.89v35.63l47.5-35.63z" fill="#e6f3ff"/><path d="m397.111 153.055v99.88h-20.47l-47.5-35.62v35.62h-.001v-99.88h.001v35.63l47.5-35.63z" fill="#bbe4f2"/></g></svg>